# This file uses centimeters as units for non-parametric coordinates.

mtllib cylinder_for_ben.mtl
g default
v 1.053076 -1.038953 -0.436198
v 0.805990 -1.038953 -0.805989
v 0.436199 -1.038953 -1.053076
v 0.000001 -1.038953 -1.139841
v -0.436198 -1.038953 -1.053076
v -0.805989 -1.038953 -0.805990
v -1.053076 -1.038953 -0.436199
v -1.139841 -1.038953 -0.000000
v -1.053076 -1.038953 0.436198
v -0.805990 -1.038953 0.805989
v -0.436199 -1.038953 1.053076
v -0.000000 -1.038953 1.139841
v 0.436198 -1.038953 1.053076
v 0.805989 -1.038953 0.805990
v 1.053076 -1.038953 0.436198
v 1.139841 -1.038953 0.000000
v 1.053076 1.038953 -0.436198
v 0.805990 1.038953 -0.805989
v 0.436199 1.038953 -1.053076
v 0.000001 1.038953 -1.139841
v -0.436198 1.038953 -1.053076
v -0.805989 1.038953 -0.805990
v -1.053076 1.038953 -0.436199
v -1.139841 1.038953 -0.000000
v -1.053076 1.038953 0.436198
v -0.805990 1.038953 0.805989
v -0.436199 1.038953 1.053076
v -0.000000 1.038953 1.139841
v 0.436198 1.038953 1.053076
v 0.805989 1.038953 0.805990
v 1.053076 1.038953 0.436198
v 1.139841 1.038953 0.000000
v 0.863182 -1.038953 -0.357542
v 0.660651 -1.038953 -0.660650
v 0.660651 1.038953 -0.660650
v 0.863182 1.038953 -0.357542
v 0.357542 -1.038953 -0.863181
v 0.357542 1.038953 -0.863181
v 0.000000 -1.038953 -0.934301
v 0.000000 1.038953 -0.934301
v -0.357541 -1.038953 -0.863182
v -0.357541 1.038953 -0.863182
v -0.660650 -1.038953 -0.660651
v -0.660650 1.038953 -0.660651
v -0.863181 -1.038953 -0.357542
v -0.863181 1.038953 -0.357542
v -0.934301 -1.038953 -0.000000
v -0.934301 1.038953 -0.000000
v -0.863182 -1.038953 0.357541
v -0.863182 1.038953 0.357541
v -0.660651 -1.038953 0.660650
v -0.660651 1.038953 0.660650
v -0.357542 -1.038953 0.863182
v -0.357542 1.038953 0.863182
v -0.000000 -1.038953 0.934301
v -0.000000 1.038953 0.934301
v 0.357542 -1.038953 0.863182
v 0.357542 1.038953 0.863182
v 0.660651 -1.038953 0.660651
v 0.660651 1.038953 0.660651
v 0.863181 -1.038953 0.357542
v 0.863181 1.038953 0.357542
v 0.934301 -1.038953 0.000001
v 0.934301 1.038953 0.000001
vt 0.375000 0.312500
vt 0.390625 0.312500
vt 0.406250 0.312500
vt 0.421875 0.312500
vt 0.437500 0.312500
vt 0.453125 0.312500
vt 0.468750 0.312500
vt 0.484375 0.312500
vt 0.500000 0.312500
vt 0.515625 0.312500
vt 0.531250 0.312500
vt 0.546875 0.312500
vt 0.562500 0.312500
vt 0.578125 0.312500
vt 0.593750 0.312500
vt 0.609375 0.312500
vt 0.625000 0.312500
vt 0.375000 0.688440
vt 0.390625 0.688440
vt 0.406250 0.688440
vt 0.421875 0.688440
vt 0.437500 0.688440
vt 0.453125 0.688440
vt 0.468750 0.688440
vt 0.484375 0.688440
vt 0.500000 0.688440
vt 0.515625 0.688440
vt 0.531250 0.688440
vt 0.546875 0.688440
vt 0.562500 0.688440
vt 0.578125 0.688440
vt 0.593750 0.688440
vt 0.609375 0.688440
vt 0.625000 0.688440
vt 0.375000 0.312500
vt 0.390625 0.312500
vt 0.390625 0.688440
vt 0.375000 0.688440
vt 0.406250 0.312500
vt 0.406250 0.688440
vt 0.421875 0.312500
vt 0.421875 0.688440
vt 0.437500 0.312500
vt 0.437500 0.688440
vt 0.453125 0.312500
vt 0.453125 0.688440
vt 0.468750 0.312500
vt 0.468750 0.688440
vt 0.484375 0.312500
vt 0.484375 0.688440
vt 0.500000 0.312500
vt 0.500000 0.688440
vt 0.515625 0.312500
vt 0.515625 0.688440
vt 0.531250 0.312500
vt 0.531250 0.688440
vt 0.546875 0.312500
vt 0.546875 0.688440
vt 0.562500 0.312500
vt 0.562500 0.688440
vt 0.578125 0.312500
vt 0.578125 0.688440
vt 0.593750 0.312500
vt 0.593750 0.688440
vt 0.609375 0.312500
vt 0.609375 0.688440
vt 0.625000 0.312500
vt 0.625000 0.688440
vt 0.375000 0.312500
vt 0.390625 0.312500
vt 0.390625 0.688440
vt 0.375000 0.688440
vt 0.406250 0.312500
vt 0.406250 0.688440
vt 0.421875 0.312500
vt 0.421875 0.688440
vt 0.437500 0.312500
vt 0.437500 0.688440
vt 0.453125 0.312500
vt 0.453125 0.688440
vt 0.468750 0.312500
vt 0.468750 0.688440
vt 0.484375 0.312500
vt 0.484375 0.688440
vt 0.500000 0.312500
vt 0.500000 0.688440
vt 0.515625 0.312500
vt 0.515625 0.688440
vt 0.531250 0.312500
vt 0.531250 0.688440
vt 0.546875 0.312500
vt 0.546875 0.688440
vt 0.562500 0.312500
vt 0.562500 0.688440
vt 0.578125 0.312500
vt 0.578125 0.688440
vt 0.593750 0.312500
vt 0.593750 0.688440
vt 0.609375 0.312500
vt 0.609375 0.688440
vt 0.625000 0.312500
vt 0.625000 0.688440
vn -0.923880 0.000000 0.382683
vn -0.923880 0.000000 0.382683
vn -0.707107 0.000000 0.707107
vn -0.707107 0.000000 0.707107
vn -0.382684 0.000000 0.923879
vn -0.382684 0.000000 0.923879
vn -0.000001 0.000000 1.000000
vn -0.000001 0.000000 1.000000
vn 0.382683 0.000000 0.923880
vn 0.382683 0.000000 0.923880
vn 0.707107 0.000000 0.707107
vn 0.707107 0.000000 0.707107
vn 0.923879 0.000000 0.382684
vn 0.923879 0.000000 0.382684
vn 1.000000 0.000000 0.000001
vn 1.000000 0.000000 0.000001
vn 0.923880 0.000000 -0.382683
vn 0.923880 0.000000 -0.382683
vn 0.707107 0.000000 -0.707107
vn 0.707107 0.000000 -0.707107
vn 0.382684 0.000000 -0.923879
vn 0.382684 0.000000 -0.923879
vn 0.000000 0.000000 -1.000000
vn 0.000000 0.000000 -1.000000
vn -0.382683 0.000000 -0.923880
vn -0.382683 0.000000 -0.923880
vn -0.707107 0.000000 -0.707107
vn -0.707107 0.000000 -0.707107
vn -0.923879 0.000000 -0.382684
vn -0.923879 0.000000 -0.382684
vn -1.000000 0.000000 -0.000000
vn -1.000000 0.000000 -0.000000
vn 0.923880 0.000000 -0.382683
vn 0.707107 0.000000 -0.707106
vn 0.707107 0.000000 -0.707106
vn 0.923880 0.000000 -0.382683
vn 0.382684 0.000000 -0.923879
vn 0.382684 0.000000 -0.923879
vn 0.000001 0.000000 -1.000000
vn 0.000001 0.000000 -1.000000
vn -0.382683 0.000000 -0.923880
vn -0.382683 0.000000 -0.923880
vn -0.707106 0.000000 -0.707107
vn -0.707106 0.000000 -0.707107
vn -0.923879 0.000000 -0.382684
vn -0.923879 0.000000 -0.382684
vn -1.000000 0.000000 -0.000000
vn -1.000000 0.000000 -0.000000
vn -0.923880 0.000000 0.382683
vn -0.923880 0.000000 0.382683
vn -0.707107 0.000000 0.707107
vn -0.707107 0.000000 0.707107
vn -0.382684 0.000000 0.923879
vn -0.382684 0.000000 0.923879
vn -0.000000 0.000000 1.000000
vn -0.000000 0.000000 1.000000
vn 0.382683 0.000000 0.923880
vn 0.382683 0.000000 0.923880
vn 0.707107 0.000000 0.707107
vn 0.707107 0.000000 0.707107
vn 0.923879 0.000000 0.382683
vn 0.923879 0.000000 0.382683
vn 1.000000 0.000000 0.000000
vn 1.000000 0.000000 0.000000
vn 0.000000 -1.000000 0.000000
vn 0.000000 -1.000000 0.000000
vn 0.000000 -1.000000 0.000000
vn 0.000000 -1.000000 0.000000
vn 0.000000 1.000000 0.000000
vn 0.000000 1.000000 0.000000
vn 0.000000 1.000000 0.000000
vn 0.000000 1.000000 0.000000
vn 0.000000 -1.000000 0.000000
vn 0.000000 -1.000000 0.000000
vn 0.000000 1.000000 0.000000
vn 0.000000 1.000000 0.000000
vn 0.000000 -1.000000 0.000000
vn 0.000000 -1.000000 0.000000
vn 0.000000 1.000000 0.000000
vn 0.000000 1.000000 0.000000
vn 0.000000 -1.000000 0.000000
vn 0.000000 -1.000000 0.000000
vn 0.000000 1.000000 0.000000
vn 0.000000 1.000000 0.000000
vn 0.000000 -1.000000 0.000000
vn 0.000000 -1.000000 0.000000
vn 0.000000 1.000000 0.000000
vn 0.000000 1.000000 0.000000
vn 0.000000 -1.000000 0.000000
vn 0.000000 -1.000000 0.000000
vn 0.000000 1.000000 0.000000
vn 0.000000 1.000000 0.000000
vn 0.000000 -1.000000 0.000000
vn 0.000000 -1.000000 0.000000
vn 0.000000 1.000000 0.000000
vn 0.000000 1.000000 0.000000
vn 0.000000 -1.000000 0.000000
vn 0.000000 -1.000000 0.000000
vn 0.000000 1.000000 0.000000
vn 0.000000 1.000000 0.000000
vn 0.000000 -1.000000 0.000000
vn 0.000000 -1.000000 0.000000
vn 0.000000 1.000000 0.000000
vn 0.000000 1.000000 0.000000
vn 0.000000 -1.000000 0.000000
vn 0.000000 -1.000000 0.000000
vn 0.000000 1.000000 0.000000
vn 0.000000 1.000000 0.000000
vn 0.000000 -1.000000 0.000000
vn 0.000000 -1.000000 0.000000
vn 0.000000 1.000000 0.000000
vn 0.000000 1.000000 0.000000
vn 0.000000 -1.000000 0.000000
vn 0.000000 -1.000000 0.000000
vn 0.000000 1.000000 0.000000
vn 0.000000 1.000000 0.000000
vn 0.000000 -1.000000 0.000000
vn 0.000000 -1.000000 0.000000
vn 0.000000 1.000000 0.000000
vn 0.000000 1.000000 0.000000
vn 0.000000 -1.000000 0.000000
vn 0.000000 -1.000000 0.000000
vn 0.000000 1.000000 0.000000
vn 0.000000 1.000000 0.000000
vn 0.000000 -1.000000 0.000000
vn 0.000000 -1.000000 0.000000
vn 0.000000 1.000000 0.000000
vn 0.000000 1.000000 0.000000
s 1
g pCylinder1
usemtl initialShadingGroup
f 33/69/1 36/72/2 35/71/3 34/70/4
f 34/70/4 35/71/3 38/74/5 37/73/6
f 37/73/6 38/74/5 40/76/7 39/75/8
f 39/75/8 40/76/7 42/78/9 41/77/10
f 41/77/10 42/78/9 44/80/11 43/79/12
f 43/79/12 44/80/11 46/82/13 45/81/14
f 45/81/14 46/82/13 48/84/15 47/83/16
f 47/83/16 48/84/15 50/86/17 49/85/18
f 49/85/18 50/86/17 52/88/19 51/87/20
f 51/87/20 52/88/19 54/90/21 53/89/22
f 53/89/22 54/90/21 56/92/23 55/91/24
f 55/91/24 56/92/23 58/94/25 57/93/26
f 57/93/26 58/94/25 60/96/27 59/95/28
f 59/95/28 60/96/27 62/98/29 61/97/30
f 61/97/30 62/98/29 64/100/31 63/99/32
f 63/99/32 64/100/31 36/102/2 33/101/1
s 2
f 1/35/33 2/36/34 18/37/35 17/38/36
f 2/36/34 3/39/37 19/40/38 18/37/35
f 3/39/37 4/41/39 20/42/40 19/40/38
f 4/41/39 5/43/41 21/44/42 20/42/40
f 5/43/41 6/45/43 22/46/44 21/44/42
f 6/45/43 7/47/45 23/48/46 22/46/44
f 7/47/45 8/49/47 24/50/48 23/48/46
f 8/49/47 9/51/49 25/52/50 24/50/48
f 9/51/49 10/53/51 26/54/52 25/52/50
f 10/53/51 11/55/53 27/56/54 26/54/52
f 11/55/53 12/57/55 28/58/56 27/56/54
f 12/57/55 13/59/57 29/60/58 28/58/56
f 13/59/57 14/61/59 30/62/60 29/60/58
f 14/61/59 15/63/61 31/64/62 30/62/60
f 15/63/61 16/65/63 32/66/64 31/64/62
f 16/65/63 1/67/33 17/68/36 32/66/64
s 3
f 1/1/65 33/69/66 34/70/67 2/2/68
s 4
f 18/19/69 35/71/70 36/72/71 17/18/72
s 3
f 2/2/68 34/70/67 37/73/73 3/3/74
s 4
f 19/20/75 38/74/76 35/71/70 18/19/69
s 3
f 3/3/74 37/73/73 39/75/77 4/4/78
s 4
f 20/21/79 40/76/80 38/74/76 19/20/75
s 3
f 4/4/78 39/75/77 41/77/81 5/5/82
s 4
f 21/22/83 42/78/84 40/76/80 20/21/79
s 3
f 5/5/82 41/77/81 43/79/85 6/6/86
s 4
f 22/23/87 44/80/88 42/78/84 21/22/83
s 3
f 6/6/86 43/79/85 45/81/89 7/7/90
s 4
f 23/24/91 46/82/92 44/80/88 22/23/87
s 3
f 7/7/90 45/81/89 47/83/93 8/8/94
s 4
f 24/25/95 48/84/96 46/82/92 23/24/91
s 3
f 8/8/94 47/83/93 49/85/97 9/9/98
s 4
f 25/26/99 50/86/100 48/84/96 24/25/95
s 3
f 9/9/98 49/85/97 51/87/101 10/10/102
s 4
f 26/27/103 52/88/104 50/86/100 25/26/99
s 3
f 10/10/102 51/87/101 53/89/105 11/11/106
s 4
f 27/28/107 54/90/108 52/88/104 26/27/103
s 3
f 11/11/106 53/89/105 55/91/109 12/12/110
s 4
f 28/29/111 56/92/112 54/90/108 27/28/107
s 3
f 12/12/110 55/91/109 57/93/113 13/13/114
s 4
f 29/30/115 58/94/116 56/92/112 28/29/111
s 3
f 13/13/114 57/93/113 59/95/117 14/14/118
s 4
f 30/31/119 60/96/120 58/94/116 29/30/115
s 3
f 14/14/118 59/95/117 61/97/121 15/15/122
s 4
f 31/32/123 62/98/124 60/96/120 30/31/119
s 3
f 15/15/122 61/97/121 63/99/125 16/16/126
s 4
f 32/33/127 64/100/128 62/98/124 31/32/123
s 3
f 16/16/126 63/99/125 33/101/66 1/17/65
s 4
f 17/34/72 36/102/71 64/100/128 32/33/127
