# This file uses centimeters as units for non-parametric coordinates.

mtllib cylinder_for_ben.mtl
g default
v 1.053076 -1.169605 -0.436198
v 0.805990 -1.169605 -0.805989
v 0.436199 -1.169605 -1.053076
v 0.000001 -1.169605 -1.139841
v -0.436198 -1.169605 -1.053076
v -0.805989 -1.169605 -0.805990
v -1.053076 -1.169605 -0.436199
v -1.139841 -1.169605 -0.000000
v -1.053076 -1.169605 0.436198
v -0.805990 -1.169605 0.805989
v -0.436199 -1.169605 1.053076
v -0.000000 -1.169605 1.139841
v 0.436198 -1.169605 1.053076
v 0.805989 -1.169605 0.805990
v 1.053076 -1.169605 0.436198
v 1.139841 -1.169605 0.000000
v 1.053076 1.169605 -0.436198
v 0.805990 1.169605 -0.805989
v 0.436199 1.169605 -1.053076
v 0.000001 1.169605 -1.139841
v -0.436198 1.169605 -1.053076
v -0.805989 1.169605 -0.805990
v -1.053076 1.169605 -0.436199
v -1.139841 1.169605 -0.000000
v -1.053076 1.169605 0.436198
v -0.805990 1.169605 0.805989
v -0.436199 1.169605 1.053076
v -0.000000 1.169605 1.139841
v 0.436198 1.169605 1.053076
v 0.805989 1.169605 0.805990
v 1.053076 1.169605 0.436198
v 1.139841 1.169605 0.000000
vt 0.375000 0.312500
vt 0.390625 0.312500
vt 0.406250 0.312500
vt 0.421875 0.312500
vt 0.437500 0.312500
vt 0.453125 0.312500
vt 0.468750 0.312500
vt 0.484375 0.312500
vt 0.500000 0.312500
vt 0.515625 0.312500
vt 0.531250 0.312500
vt 0.546875 0.312500
vt 0.562500 0.312500
vt 0.578125 0.312500
vt 0.593750 0.312500
vt 0.609375 0.312500
vt 0.625000 0.312500
vt 0.375000 0.688440
vt 0.390625 0.688440
vt 0.406250 0.688440
vt 0.421875 0.688440
vt 0.437500 0.688440
vt 0.453125 0.688440
vt 0.468750 0.688440
vt 0.484375 0.688440
vt 0.500000 0.688440
vt 0.515625 0.688440
vt 0.531250 0.688440
vt 0.546875 0.688440
vt 0.562500 0.688440
vt 0.578125 0.688440
vt 0.593750 0.688440
vt 0.609375 0.688440
vt 0.625000 0.688440
vn 0.923880 0.000000 -0.382683
vn 0.707107 0.000000 -0.707106
vn 0.707107 0.000000 -0.707106
vn 0.923880 0.000000 -0.382683
vn 0.382684 0.000000 -0.923879
vn 0.382684 0.000000 -0.923879
vn 0.000001 0.000000 -1.000000
vn 0.000001 0.000000 -1.000000
vn -0.382683 0.000000 -0.923880
vn -0.382683 0.000000 -0.923880
vn -0.707106 0.000000 -0.707107
vn -0.707106 0.000000 -0.707107
vn -0.923879 0.000000 -0.382684
vn -0.923879 0.000000 -0.382684
vn -1.000000 0.000000 -0.000000
vn -1.000000 0.000000 -0.000000
vn -0.923880 0.000000 0.382683
vn -0.923880 0.000000 0.382683
vn -0.707107 0.000000 0.707107
vn -0.707107 0.000000 0.707107
vn -0.382684 0.000000 0.923879
vn -0.382684 0.000000 0.923879
vn -0.000000 0.000000 1.000000
vn -0.000000 0.000000 1.000000
vn 0.382683 0.000000 0.923880
vn 0.382683 0.000000 0.923880
vn 0.707107 0.000000 0.707107
vn 0.707107 0.000000 0.707107
vn 0.923879 0.000000 0.382683
vn 0.923879 0.000000 0.382683
vn 1.000000 0.000000 0.000000
vn 1.000000 0.000000 0.000000
s 1
g pCylinder1
usemtl initialShadingGroup
f 1/1/1 2/2/2 18/19/3 17/18/4
f 2/2/2 3/3/5 19/20/6 18/19/3
f 3/3/5 4/4/7 20/21/8 19/20/6
f 4/4/7 5/5/9 21/22/10 20/21/8
f 5/5/9 6/6/11 22/23/12 21/22/10
f 6/6/11 7/7/13 23/24/14 22/23/12
f 7/7/13 8/8/15 24/25/16 23/24/14
f 8/8/15 9/9/17 25/26/18 24/25/16
f 9/9/17 10/10/19 26/27/20 25/26/18
f 10/10/19 11/11/21 27/28/22 26/27/20
f 11/11/21 12/12/23 28/29/24 27/28/22
f 12/12/23 13/13/25 29/30/26 28/29/24
f 13/13/25 14/14/27 30/31/28 29/30/26
f 14/14/27 15/15/29 31/32/30 30/31/28
f 15/15/29 16/16/31 32/33/32 31/32/30
f 16/16/31 1/17/1 17/34/4 32/33/32
